<svg width="49" height="49" viewBox="0 0 49 49" fill="none" xmlns="http://www.w3.org/2000/svg">
<g clip-path="url(#clip0_115_279)">
<path d="M32.4999 32.5L24.4999 24.5M24.4999 24.5L16.4999 32.5M24.4999 24.5V42.5M41.2799 37.28C43.2306 36.2165 44.7716 34.5338 45.6597 32.4972C46.5477 30.4607 46.7323 28.1865 46.1843 26.0334C45.6363 23.8803 44.3869 21.971 42.6333 20.6069C40.8796 19.2428 38.7216 18.5015 36.4999 18.5H33.9799C33.3746 16.1585 32.2462 13.9847 30.6798 12.142C29.1134 10.2993 27.1496 8.8357 24.9361 7.86121C22.7226 6.88673 20.317 6.42672 17.9002 6.51576C15.4833 6.60481 13.1181 7.2406 10.9823 8.37533C8.84649 9.51006 6.99574 11.1142 5.56916 13.0672C4.14259 15.0201 3.1773 17.2711 2.74588 19.6508C2.31446 22.0305 2.42813 24.4771 3.07835 26.8065C3.72856 29.136 4.8984 31.2877 6.49992 33.1" stroke="#1E1E1E" stroke-width="3" stroke-linecap="round" stroke-linejoin="round"/>
</g>
<defs>
<clipPath id="clip0_115_279">
<rect width="48" height="48" fill="white" transform="translate(0.5 0.5)"/>
</clipPath>
</defs>
</svg>

